<svg xmlns="http://www.w3.org/2000/svg" viewBox="0 0 64 64" role="img" aria-labelledby="title">
  <title id="title">PassDock</title>
  <defs>
    <linearGradient id="pd-gradient" x1="12" x2="54" y1="10" y2="54" gradientUnits="userSpaceOnUse">
      <stop stop-color="#db5f2f"/>
      <stop offset="1" stop-color="#1f7a78"/>
    </linearGradient>
  </defs>
  <rect width="64" height="64" rx="18" fill="#241b17"/>
  <path fill="url(#pd-gradient)" d="M16 15h18c8.3 0 14 4.9 14 12.1 0 7.4-5.7 12.2-14 12.2h-8v10.7H16V15Zm10 16.3h7.2c3.2 0 5-1.5 5-4.2 0-2.6-1.8-4.1-5-4.1H26v8.3Z"/>
  <path fill="#fffaf4" d="M32.5 49V15h8.8c6.8 0 12.7 4.8 12.7 17 0 12.1-5.9 17-12.7 17h-8.8Zm9-7.7c3.5 0 5.8-2.3 5.8-9.3 0-7.1-2.3-9.3-5.8-9.3H40v18.6h1.5Z"/>
</svg>
